<svg width="47" height="22" viewBox="0 0 47 22" fill="none" xmlns="http://www.w3.org/2000/svg">
<rect x="0.5" y="1" width="46" height="20" rx="4.5" stroke="black"/>
<path d="M13.5654 4.70312V17.5H11.377V4.70312H13.5654ZM17.582 4.70312V6.46094H7.39551V4.70312H17.582ZM24.1299 12.7275H20.7988V10.9785H24.1299C24.71 10.9785 25.1787 10.8848 25.5361 10.6973C25.8936 10.5098 26.1543 10.252 26.3184 9.92383C26.4883 9.58984 26.5732 9.20898 26.5732 8.78125C26.5732 8.37695 26.4883 7.99902 26.3184 7.64746C26.1543 7.29004 25.8936 7.00293 25.5361 6.78613C25.1787 6.56934 24.71 6.46094 24.1299 6.46094H21.4756V17.5H19.2695V4.70312H24.1299C25.1201 4.70312 25.9609 4.87891 26.6523 5.23047C27.3496 5.57617 27.8799 6.05664 28.2432 6.67188C28.6064 7.28125 28.7881 7.97852 28.7881 8.76367C28.7881 9.58984 28.6064 10.2988 28.2432 10.8906C27.8799 11.4824 27.3496 11.9365 26.6523 12.2529C25.9609 12.5693 25.1201 12.7275 24.1299 12.7275ZM34.4131 6.4082L30.5898 17.5H28.2783L33.0947 4.70312H34.5713L34.4131 6.4082ZM37.6123 17.5L33.7803 6.4082L33.6133 4.70312H35.0986L39.9326 17.5H37.6123ZM37.4277 12.7539V14.5029H30.4668V12.7539H37.4277Z" fill="black"/>
</svg>
