<svg width="105" height="106" viewBox="0 0 105 106" fill="none" xmlns="http://www.w3.org/2000/svg">
<path fill-rule="evenodd" clip-rule="evenodd" d="M42.5969 9.9186C50.0169 -2.54397 67.8627 -3.10425 76.0626 8.8586L80.5524 15.4155L86.761 12.349C87.6176 11.9247 88.5826 11.7697 89.529 11.9045C90.4754 12.0393 91.3588 12.4576 92.0628 13.1042C92.7668 13.7509 93.2585 14.5956 93.4731 15.5272C93.6877 16.4587 93.6151 17.4334 93.2649 18.3229L84.5502 40.5526C84.1242 41.6406 83.3109 42.5326 82.2667 43.0568C81.2225 43.581 80.0212 43.7004 78.8943 43.3919L55.5364 37.0016C54.611 36.7481 53.7844 36.2192 53.1664 35.4851C52.5485 34.751 52.1683 33.8464 52.0763 32.8912C51.9843 31.936 52.1849 30.9755 52.6514 30.1369C53.1179 29.2984 53.8283 28.6215 54.6884 28.196L59.8824 25.6293L55.6349 18.9665C55.3992 18.5953 55.0806 18.2839 54.7041 18.0569C54.3277 17.8298 53.9036 17.6933 53.4654 17.6581C53.0272 17.6228 52.5867 17.6899 52.1788 17.8538C51.7709 18.0178 51.4066 18.2743 51.1147 18.603L42.612 28.196C41.8294 29.0748 40.7473 29.6305 39.5771 29.7545C38.4069 29.8786 37.2324 29.5622 36.2829 28.8671C35.3334 28.172 34.6769 27.148 34.4416 25.995C34.2063 24.842 34.4091 23.6426 35.0103 22.631L42.5969 9.9186ZM28.5897 35.3435C29.743 35.1707 30.9195 35.4299 31.8934 36.0712C32.8673 36.7126 33.5701 37.691 33.867 38.8187L40.015 62.2372C40.259 63.1655 40.2149 64.1461 39.8886 65.0487C39.5623 65.9514 38.9692 66.7335 38.188 67.2912C37.4069 67.849 36.4746 68.156 35.5148 68.1715C34.5551 68.187 33.6134 67.9104 32.8146 67.3782L27.9916 64.1603L24.3422 71.179C24.1401 71.5684 24.0309 71.9993 24.0234 72.438C24.0158 72.8766 24.11 73.311 24.2985 73.7071C24.487 74.1033 24.7648 74.4503 25.11 74.7211C25.4551 74.9918 25.8584 75.1789 26.288 75.2676L38.849 77.8419C39.9928 78.0881 41.0048 78.7493 41.6897 79.6978C42.3746 80.6463 42.6839 81.815 42.5578 82.9781C42.4317 84.1413 41.8792 85.2165 41.0069 85.9962C40.1346 86.7759 39.0044 87.2048 37.8344 87.2002L23.0247 86.9958C8.52544 86.7913 -0.885849 71.6257 5.38329 58.5423L8.81315 51.3646L3.05887 47.5259C2.26712 46.9959 1.6538 46.2392 1.29917 45.3549C0.944544 44.4706 0.865116 43.4998 1.07128 42.5696C1.27745 41.6394 1.75961 40.7931 2.45467 40.1414C3.14973 39.4897 4.02532 39.063 4.96687 38.9172L28.5746 35.351L28.5897 35.3435ZM54.2266 84.9515C53.4994 84.0377 53.1358 82.8873 53.2057 81.7216C53.2756 80.5559 53.774 79.4572 54.6052 78.6369L71.8074 61.6012C72.4896 60.9238 73.3618 60.4703 74.3081 60.301C75.2544 60.1316 76.2298 60.2545 77.1045 60.6532C77.9792 61.0519 78.7117 61.7076 79.2046 62.5329C79.6975 63.3583 79.9273 64.3141 79.8634 65.2733L79.4849 71.0503L87.3894 70.7096C87.8295 70.6914 88.2593 70.571 88.6449 70.3581C89.0304 70.1451 89.3611 69.8453 89.6109 69.4825C89.8606 69.1197 90.0225 68.7037 90.0837 68.2675C90.145 67.8313 90.1039 67.3869 89.9637 66.9693L85.8979 54.8172C85.5174 53.6973 85.5701 52.4755 86.0456 51.3926C86.5211 50.3096 87.3849 49.444 88.4668 48.9662C89.5488 48.4884 90.7704 48.4331 91.8911 48.8111C93.0118 49.1892 93.9503 49.9732 94.5217 51.0088L101.745 63.9407C108.817 76.6002 100.382 92.3336 85.9206 93.4466L77.9933 94.0599L77.5466 100.965C77.4853 101.918 77.1371 102.83 76.5478 103.581C75.9586 104.333 75.1558 104.888 74.2449 105.175C73.3341 105.462 72.3578 105.466 71.4444 105.188C70.531 104.909 69.7232 104.361 69.1272 103.615L54.2266 84.9515Z" fill="white"/>
</svg>
