<svg width="38" height="38" viewBox="0 0 38 38" fill="none" xmlns="http://www.w3.org/2000/svg">
<path d="M4.4834 15.6807H8.5834V27.3493H4.4834V15.6807Z" stroke="black" stroke-opacity="0.75" stroke-width="1.5"/>
<path d="M11.9502 15.6807H16.0502V27.3493H11.9502V15.6807Z" stroke="black" stroke-opacity="0.75" stroke-width="1.5"/>
<path d="M26.8833 15.6807H30.9833V20.2947H26.8833V15.6807Z" stroke="black" stroke-opacity="0.75" stroke-width="1.5"/>
<path d="M0.75 30.75H16.05V34.8937H0.75V30.75Z" stroke="black" stroke-opacity="0.75" stroke-width="1.5"/>
<path d="M0.75 12.4186V9.86809L18.6667 0.839839L36.5833 9.86809V12.4186H0.75Z" stroke="black" stroke-opacity="0.75" stroke-width="1.5"/>
<path d="M19.4165 15.75H23.5832V20.0527H19.4165V15.75Z" stroke="black" stroke-opacity="0.75" stroke-width="1.5"/>
<path d="M22.9208 25.6611L23.6504 24.5229L23.6508 24.5224L24.4846 23.2195L24.4853 23.2184C24.4892 23.2123 24.4934 23.2082 24.5015 23.204C24.5116 23.1988 24.5282 23.1938 24.549 23.1938C24.5699 23.1938 24.5865 23.1988 24.5965 23.204C24.6047 23.2082 24.6089 23.2123 24.6128 23.2184L24.6133 23.2192L25.5542 24.691L24.8174 25.8525L24.396 26.495L22.9208 25.6611ZM22.3636 30.6716L21.8928 30.4053L21.5111 31.0084L20.3639 32.8206L19.65 31.4767L19.65 31.4767L19.6476 31.4722C19.5289 31.2524 19.5357 30.9928 19.6786 30.7659C19.6786 30.7658 19.6787 30.7657 19.6788 30.7656L20.0104 30.2404L20.4309 29.5743L20.0398 29.3534L21.8981 28.9161L22.3636 30.6716ZM22.2176 34.1786H24.5357V35.7262H22.3067C22.0408 35.7262 21.8299 35.5832 21.7411 35.413C21.6515 35.2408 21.6623 35.0548 21.7572 34.906L21.7585 34.904L22.2176 34.1786ZM29.3929 36.2642L27.9991 34.9524L29.3929 33.6406V34.1786H30.1429H32.7303L32.1444 35.2777L32.1439 35.2786C32.0054 35.5391 31.7095 35.7262 31.3571 35.7262H30.1429H29.3929V36.2642ZM32.8779 31.9167L31.7411 30.1302L33.2225 29.3243L34.1345 30.7512C34.2155 30.8897 34.25 31.0219 34.25 31.1429C34.25 31.2555 34.2238 31.3634 34.1677 31.4691C34.0293 31.7296 33.7333 31.9167 33.381 31.9167H32.8779ZM28.8426 26.4561L29.25 26.2265L28.8243 25.5587L27.0338 22.75H28.5238C28.8433 22.75 29.1291 22.9089 29.2866 23.1466L30.3359 24.7951L30.7185 25.3963L31.1707 25.14L30.7057 26.8937L28.8426 26.4561Z" stroke="black" stroke-opacity="0.75" stroke-width="1.5"/>
</svg>
