<svg width="84" height="84" viewBox="0 0 84 84" fill="none" xmlns="http://www.w3.org/2000/svg">
<path d="M19.08 20.6L24.8 11.12L28.92 4.28C30.48 1.68 34.24 1.68 35.8 4.28L41.72 14.12L36.8 22.36L32.8 28.84L19.08 20.6ZM82.88 43.88L76.48 33.24L62.64 41.24L71.48 56H76C79.04 56 81.8 54.28 83.16 51.56C83.72 50.44 84 49.24 84 48C84 46.56 83.6 45.16 82.88 43.88ZM60 76H66C69.04 76 71.8 74.28 73.16 71.56L78.96 60H60V52L44 68L60 84V76ZM36 60H18.8L15.44 65.64C14.24 67.64 14.16 70.12 15.2 72.24C16.32 74.52 18.68 76 21.28 76H36V60ZM20.48 49.4L27.4 53.56L21.92 31.6L0 37.08L6.8 41.16L5.16 43.92C3.76 46.28 3.64 49.16 4.88 51.6L11.4 64.64L20.48 49.4ZM64.08 12.56L58.88 3.88C57.4 1.48 54.8 0 52 0H37.88L50.36 20.8L43.48 24.92L65.44 30.4L70.92 8.44L64.08 12.56Z" fill="#32C36C"/>
</svg>
